<?xml version="1.0" standalone="no"?>
<!DOCTYPE svg PUBLIC "-//W3C//DTD SVG 20010904//EN"
 "http://www.w3.org/TR/2001/REC-SVG-20010904/DTD/svg10.dtd">
<svg version="1.0" xmlns="http://www.w3.org/2000/svg"
 width="270.000000pt" height="270.000000pt" viewBox="0 0 270.000000 270.000000"
 preserveAspectRatio="xMidYMid meet">
<metadata>
Created by potrace 1.11, written by Peter Selinger 2001-2013
</metadata>
<g transform="translate(0.000000,270.000000) scale(0.100000,-0.100000)"
fill="#000000" stroke="none">
<path d="M1030 2554 c-24 -10 -50 -36 -80 -80 -86 -125 -94 -133 -130 -141
-19 -4 -51 -5 -70 -4 -105 11 -158 5 -194 -19 -46 -32 -65 -77 -71 -170 -9
-143 -11 -146 -131 -206 -160 -81 -182 -134 -120 -290 20 -49 38 -98 40 -110
5 -24 -23 -90 -50 -119 -44 -46 -77 -107 -81 -148 -8 -65 18 -109 108 -184 76
-63 98 -97 94 -138 -26 -213 -25 -233 15 -279 29 -33 62 -49 120 -60 92 -17
136 -31 155 -51 13 -12 36 -61 51 -109 34 -105 77 -162 130 -172 30 -5 86 2
154 20 120 32 130 31 195 -29 112 -102 144 -121 200 -116 45 4 73 22 150 95
39 36 81 69 95 73 15 4 61 -3 115 -17 113 -30 140 -32 185 -14 50 20 70 52
109 165 39 112 46 119 173 148 110 26 128 35 157 77 30 44 34 88 19 194 -19
128 -27 113 115 241 56 50 77 86 78 132 2 44 -11 71 -64 143 -54 74 -74 112
-72 139 1 11 18 61 39 111 66 166 45 215 -121 294 -109 52 -114 61 -128 218
-14 153 -56 185 -236 183 -135 -2 -132 -3 -216 124 -86 132 -148 144 -293 60
-93 -53 -130 -60 -180 -32 -159 89 -195 99 -260 71z m470 -419 c410 -86 682
-468 628 -879 -40 -308 -272 -578 -562 -656 -101 -27 -130 -31 -231 -32 -421
-1 -777 357 -778 782 -1 224 74 407 230 566 104 105 253 187 394 218 86 19
232 19 319 1z"/>
<path d="M1211 2039 c-208 -41 -412 -202 -496 -393 -51 -116 -72 -263 -54
-375 16 -96 20 -115 44 -174 118 -289 416 -464 723 -425 243 31 443 173 539
383 132 287 68 614 -160 820 -72 65 -210 137 -307 159 -70 17 -217 19 -289 5z
m557 -319 c12 -11 22 -31 22 -43 0 -12 -52 -94 -115 -182 -64 -88 -123 -171
-133 -185 -155 -225 -274 -380 -291 -380 -16 0 -44 31 -157 175 -148 189 -194
254 -194 276 0 18 64 88 84 90 35 4 43 -1 175 -120 40 -36 77 -67 81 -69 4 -2
30 23 56 55 27 32 54 63 59 69 6 6 39 44 75 84 94 107 169 189 217 238 41 42
42 43 70 28 15 -8 38 -24 51 -36z"/>
</g>
</svg>
